<?xml version="1.0" encoding="UTF-8" standalone="no"?>
<!-- Created with Inkscape (http://www.inkscape.org/) -->

<svg
   width="119.0625mm"
   height="29.633333mm"
   viewBox="0 0 119.0625 29.633333"
   version="1.1"
   id="svg5"
   inkscape:version="1.1.2 (b8e25be833, 2022-02-05)"
   sodipodi:docname="dibujo-12.svg"
   xmlns:inkscape="http://www.inkscape.org/namespaces/inkscape"
   xmlns:sodipodi="http://sodipodi.sourceforge.net/DTD/sodipodi-0.dtd"
   xmlns="http://www.w3.org/2000/svg"
   xmlns:svg="http://www.w3.org/2000/svg">
  <sodipodi:namedview
     id="namedview7"
     pagecolor="#ffffff"
     bordercolor="#666666"
     borderopacity="1.0"
     inkscape:pageshadow="2"
     inkscape:pageopacity="0.0"
     inkscape:pagecheckerboard="0"
     inkscape:document-units="mm"
     showgrid="false"
     fit-margin-top="0"
     fit-margin-left="0"
     fit-margin-right="0"
     fit-margin-bottom="0"
     showguides="true"
     inkscape:zoom="0.74029882"
     inkscape:cx="387.00588"
     inkscape:cy="197.21766"
     inkscape:window-width="1920"
     inkscape:window-height="1017"
     inkscape:window-x="-8"
     inkscape:window-y="-8"
     inkscape:window-maximized="1"
     inkscape:current-layer="layer1" />
  <defs
     id="defs2">
    <rect
       x="-55.383041"
       y="-20.262088"
       width="667.2981"
       height="197.21766"
       id="rect21642" />
  </defs>
  <g
     inkscape:label="Capa 1"
     inkscape:groupmode="layer"
     id="layer1"
     transform="translate(-2.6564755,-96.334961)">
    <g
       id="g57"
       transform="translate(3.216607,-4.288808)">
      <path
         style="fill:#b9b9b9;fill-opacity:1;stroke-width:0.264583"
         d="m 92.405939,119.51269 c 0.18764,-0.20361 0.382849,-0.33059 0.433803,-0.28219 0.156935,0.14908 -0.240808,0.65238 -0.515562,0.65238 -0.142671,0 -0.105878,-0.16659 0.08176,-0.37019 z m -53.690457,-2.9371 c 0.0021,-0.72761 0.05337,-0.99386 0.114187,-0.59168 0.06082,0.40218 0.05919,0.9975 -0.0036,1.32292 -0.06282,0.32542 -0.112572,-0.004 -0.110587,-0.73124 z m 53.970508,1.00727 c 0.257431,-0.0671 0.614619,-0.0627 0.79375,0.01 0.179131,0.0725 -0.03149,0.12736 -0.468056,0.12197 -0.436563,-0.005 -0.583126,-0.0647 -0.325694,-0.13177 z m 2.77309,-0.003 c 0.327422,-0.0631 0.863203,-0.0631 1.190625,0 0.327422,0.0631 0.05953,0.11466 -0.595313,0.11466 -0.654844,0 -0.922734,-0.0516 -0.595312,-0.11466 z m 8.72684,-0.11069 c 0.17948,-0.18083 0.39297,-0.26212 0.47443,-0.18066 0.0815,0.0815 -0.0654,0.22941 -0.32632,0.32877 -0.37708,0.14358 -0.40747,0.11319 -0.14811,-0.14811 z M 60.451043,117.0094 c 0.133482,-0.22166 0.07667,-0.44919 -0.147648,-0.59127 -0.200546,-0.12702 -0.245565,-0.23095 -0.100045,-0.23095 0.145521,0 0.419048,0.098 0.607836,0.21774 0.269949,0.17125 0.244977,0.29751 -0.116933,0.59127 -0.368035,0.29872 -0.416737,0.30136 -0.24321,0.0132 z m 25.698484,-0.37871 c 0.09936,-0.26094 0.247304,-0.40778 0.328766,-0.32632 0.08146,0.0815 1.7e-4,0.29496 -0.180652,0.47443 -0.261308,0.25937 -0.291698,0.22897 -0.148114,-0.14811 z m 3.424447,-1.7715 c -0.09269,-0.14998 0.01352,-0.19433 0.248967,-0.10398 0.45837,0.17589 0.542235,0.36554 0.16165,0.36554 -0.136932,0 -0.321712,-0.1177 -0.410617,-0.26156 z m -50.913276,-0.42195 c 0.0127,-0.30822 0.07539,-0.37092 0.15985,-0.15985 0.07643,0.19099 0.06703,0.4192 -0.02088,0.50712 -0.08792,0.0879 -0.150453,-0.0683 -0.138965,-0.34727 z m 5.667652,-0.63941 c -0.08994,-0.14552 -0.03743,-0.26458 0.116676,-0.26458 0.15411,0 0.280199,0.11906 0.280199,0.26458 0,0.14552 -0.0525,0.26458 -0.116675,0.26458 -0.06417,0 -0.190262,-0.11906 -0.2802,-0.26458 z m 41.957348,-0.68351 c 0.0127,-0.30822 0.07539,-0.37092 0.15985,-0.15985 0.07643,0.191 0.06703,0.4192 -0.02088,0.50712 -0.08792,0.0879 -0.150453,-0.0683 -0.138965,-0.34727 z m 14.318192,-0.50711 c 0.005,-0.43657 0.0647,-0.58313 0.13177,-0.3257 0.0671,0.25743 0.0627,0.61462 -0.01,0.79375 -0.0725,0.17913 -0.12735,-0.0315 -0.12196,-0.46805 z m -61.882095,-2.11667 c 0.0016,-0.87313 0.05088,-1.19842 0.109765,-0.72287 0.05889,0.47555 0.05767,1.18993 -0.0027,1.5875 -0.06037,0.39758 -0.108551,0.008 -0.107067,-0.86463 z m 30.019107,-0.58863 c 0.475549,-0.0589 1.189924,-0.0577 1.5875,0.003 0.397576,0.0604 0.0085,0.10855 -0.864635,0.10707 -0.873125,-10e-4 -1.198414,-0.0509 -0.722865,-0.10977 z M 47.900225,109.5645 c -0.339169,-0.21919 -0.329551,-0.25707 0.06615,-0.26053 0.254662,-0.002 0.463021,0.11501 0.463021,0.26053 0,0.32269 -0.02984,0.32269 -0.529167,0 z m -32.380838,-0.26459 c 0.162361,-0.21828 0.349853,-0.57239 0.416649,-0.78692 0.08288,-0.2662 0.172485,-0.19488 0.282183,0.22461 0.0884,0.33806 0.09046,0.54438 0.0046,0.45849 -0.08589,-0.0859 -0.345715,-0.008 -0.577386,0.17227 -0.355863,0.27747 -0.375416,0.26685 -0.126015,-0.0685 z m 78.749068,-0.1895 c 0.400182,-0.0606 1.055026,-0.0606 1.455208,0 0.400182,0.0606 0.07276,0.11022 -0.727604,0.11022 -0.800365,0 -1.127787,-0.0496 -0.727604,-0.11022 z m -76.971702,-2.04782 c 0,-0.21188 0.101161,-0.32271 0.224802,-0.2463 0.123641,0.0764 0.156302,0.24977 0.07258,0.38524 -0.213949,0.34618 -0.297382,0.3072 -0.297382,-0.13894 z m 74.673608,-0.0664 c -0.143585,-0.37708 -0.113194,-0.40747 0.148113,-0.14811 0.180822,0.17947 0.262115,0.39297 0.180653,0.47443 -0.08146,0.0815 -0.229407,-0.0654 -0.328766,-0.32632 z m -53.269169,-0.60672 c 0,-0.50933 0.05445,-0.71768 0.121002,-0.46302 0.06655,0.25466 0.06655,0.67138 0,0.92604 -0.06655,0.25466 -0.121002,0.0463 -0.121002,-0.46302 z M 83.155955,104.355 c 0.254661,-0.0665 0.67138,-0.0665 0.926041,0 0.254662,0.0666 0.0463,0.121 -0.46302,0.121 -0.509323,0 -0.717683,-0.0545 -0.463021,-0.121 z M 65.29658,103.81103 c 1.200547,-0.049 3.165078,-0.049 4.365625,0 1.200547,0.049 0.218281,0.0891 -2.182813,0.0891 -2.401094,0 -3.383359,-0.0401 -2.182812,-0.0891 z m 11.248429,0.007 c 0.402183,-0.0608 0.997495,-0.0592 1.322917,0.004 0.325422,0.0628 -0.0037,0.11256 -0.731242,0.11057 -0.727604,-0.002 -0.993857,-0.0534 -0.591675,-0.11418 z m -65.818742,-2.20941 c -0.430916,-0.1705 -0.369508,-0.21283 0.330729,-0.22797 0.894225,-0.0193 1.096739,0.10058 0.529167,0.31336 -0.181901,0.0682 -0.568854,0.0298 -0.859896,-0.0854 z"
         id="path71" />
      <path
         style="fill:#a3a3a3;fill-opacity:1;stroke-width:0.264583"
         d="m 89.246406,117.58286 c 0.257432,-0.0671 0.614619,-0.0627 0.79375,0.01 0.179131,0.0725 -0.03149,0.12736 -0.468055,0.12197 -0.436563,-0.005 -0.583126,-0.0647 -0.325695,-0.13177 z M 8.1465797,114.68057 c 0.181901,-0.0734 0.4795573,-0.0734 0.6614583,0 0.181901,0.0734 0.033073,0.13345 -0.3307292,0.13345 -0.3638021,0 -0.5126302,-0.0601 -0.3307291,-0.13345 z m 88.3873693,-7.94302 c 0.190995,-0.0764 0.419201,-0.067 0.507119,0.0209 0.08792,0.0879 -0.06835,0.15046 -0.347265,0.13897 -0.308227,-0.0127 -0.37092,-0.0754 -0.159854,-0.15986 z m -1.978863,-1.26283 c 0,-0.21188 0.101161,-0.32271 0.224803,-0.2463 0.12364,0.0764 0.156303,0.24977 0.07258,0.38524 -0.213948,0.34618 -0.297381,0.3072 -0.297381,-0.13894 z m -8.819444,-0.15954 c 0,-0.15411 0.119063,-0.20661 0.264583,-0.11668 0.145521,0.0899 0.264584,0.21603 0.264584,0.2802 0,0.0642 -0.119063,0.11668 -0.264584,0.11668 -0.14552,0 -0.264583,-0.12609 -0.264583,-0.2802 z m 7.672917,-0.26458 c 0,-0.15411 0.119062,-0.20662 0.264583,-0.11668 0.145521,0.0899 0.264583,0.21603 0.264583,0.2802 0,0.0642 -0.119062,0.11667 -0.264583,0.11667 -0.145521,0 -0.264583,-0.12609 -0.264583,-0.28019 z m -13.684205,-1.23753 c 0.695616,-0.0547 1.767178,-0.054 2.38125,0.001 0.614074,0.0555 0.04493,0.10023 -1.264753,0.0994 -1.309688,-7.9e-4 -1.812111,-0.0462 -1.116497,-0.10089 z"
         id="path69" />
      <path
         style="fill:#8c8c8c;fill-opacity:1;stroke-width:0.264583"
         d="m 51.231139,117.53985 c -0.07695,-0.1245 0.154154,-0.17015 0.513551,-0.10145 0.3594,0.0687 0.653452,0.17057 0.653452,0.22636 0,0.20472 -1.031515,0.0943 -1.167003,-0.12491 z m 9.561624,0.0354 c 0.469696,-0.0584 1.303134,-0.0594 1.852083,-0.002 0.548947,0.0573 0.16465,0.1051 -0.853996,0.10627 -1.018645,0.001 -1.467786,-0.0457 -0.998087,-0.10414 z m 38.777018,-0.005 c 0.842059,-0.0527 2.151749,-0.0522 2.910419,0.001 0.75867,0.0533 0.0697,0.0964 -1.53102,0.0958 -1.600725,-6.1e-4 -2.221456,-0.0442 -1.379399,-0.0968 z M 17.8134,116.311 c 0.002,-0.7276 0.05337,-0.99386 0.114185,-0.59167 0.06082,0.40218 0.05919,0.99749 -0.0036,1.32291 -0.0628,0.32543 -0.11256,-0.004 -0.110574,-0.73124 z m 82.42472,-1.90053 c 0.19099,-0.0764 0.4192,-0.067 0.50712,0.0209 0.0879,0.0879 -0.0684,0.15045 -0.34727,0.13896 -0.30823,-0.0127 -0.37092,-0.0754 -0.15985,-0.15985 z m -82.495088,-0.48711 c 0.184076,-0.2218 0.389171,-0.34878 0.455766,-0.28219 0.183488,0.18349 -0.189321,0.68546 -0.509084,0.68546 -0.175444,0 -0.155372,-0.15182 0.05332,-0.40327 z m 83.125438,-1.84569 c 0.005,-0.43656 0.0647,-0.58313 0.13178,-0.32569 0.0671,0.25743 0.0627,0.61461 -0.01,0.79375 -0.0725,0.17913 -0.12735,-0.0315 -0.12196,-0.46806 z m -79.541859,-1.37765 c -0.143585,-0.37709 -0.113194,-0.40748 0.148113,-0.14811 0.180821,0.17947 0.262115,0.39297 0.180653,0.47443 -0.08146,0.0815 -0.229406,-0.0654 -0.328766,-0.32632 z m 20.907324,-1.83477 c -0.139348,-0.36314 -0.100631,-0.37951 0.236276,-0.0999 0.459115,0.38103 0.506899,0.53419 0.166656,0.53419 -0.129953,0 -0.311272,-0.19543 -0.402932,-0.43429 z m 50.452055,0.25094 c 0.257431,-0.0671 0.614619,-0.0627 0.79375,0.01 0.179131,0.0725 -0.03149,0.12737 -0.468056,0.12197 -0.436563,-0.005 -0.583126,-0.0647 -0.325694,-0.13177 z m 8.08447,-0.78877 c 0.1129,-0.55376 0.17944,-0.6203 0.25654,-0.25654 0.0573,0.27012 -0.0114,0.60657 -0.15244,0.74766 -0.16567,0.16567 -0.20254,-0.008 -0.1041,-0.49112 z m -58.606383,-2.73204 c 0,-0.94589 0.04802,-1.33284 0.106715,-0.8599 0.05869,0.47294 0.05869,1.24685 0,1.71979 -0.05869,0.47295 -0.106715,0.086 -0.106715,-0.85989 z m 59.132373,1.40676 c 0.19099,-0.0764 0.4192,-0.067 0.50712,0.0209 0.0879,0.0879 -0.0683,0.15045 -0.34727,0.13896 -0.30822,-0.0127 -0.37092,-0.0754 -0.15985,-0.15985 z m -44.069662,-2.91206 c 0.254661,-0.0666 0.67138,-0.0666 0.926042,0 0.254661,0.0666 0.0463,0.121 -0.463021,0.121 -0.509323,0 -0.717682,-0.0544 -0.463021,-0.121 z m -46.746576,-0.84597 c -0.07975,-0.12904 0.06206,-0.39693 0.315114,-0.59532 0.406444,-0.31863 0.421802,-0.31158 0.131674,0.0605 -0.180638,0.23168 -0.250091,0.49957 -0.15434,0.59532 0.09575,0.0957 0.101745,0.17409 0.01332,0.17409 -0.08842,0 -0.226021,-0.10557 -0.305767,-0.2346 z"
         id="path67" />
      <path
         style="fill:#767676;fill-opacity:1;stroke-width:0.264583"
         d="m 100.30861,113.37854 c 0.0127,-0.30823 0.0754,-0.37092 0.15986,-0.15986 0.0764,0.191 0.067,0.4192 -0.0209,0.50712 -0.0879,0.0879 -0.15045,-0.0684 -0.13897,-0.34726 z m -2.889526,-0.37483 c 0,-0.3638 0.06006,-0.51263 0.133453,-0.33073 0.0734,0.1819 0.0734,0.47956 0,0.66146 -0.0734,0.1819 -0.133453,0.0331 -0.133453,-0.33073 z m -71.214692,-0.2802 c 0,-0.29963 0.113863,-0.47441 0.253028,-0.3884 0.139165,0.086 0.185958,0.33116 0.103984,0.54478 -0.209874,0.54693 -0.357012,0.48248 -0.357012,-0.15638 z m 30.339917,0.17009 c -0.130255,-0.33943 0.02614,-0.41221 0.823073,-0.38302 0.734833,0.0269 0.816449,0.0671 0.322427,0.15896 -0.363802,0.0676 -0.734187,0.23998 -0.823077,0.38303 -0.09022,0.1452 -0.232653,0.075 -0.322423,-0.15897 z M 2.6564755,112.73913 c 0,-0.14552 0.1260892,-0.26459 0.2801982,-0.26459 0.1541091,0 0.2066136,0.11907 0.1166768,0.26459 -0.089937,0.14552 -0.216026,0.26458 -0.2801982,0.26458 -0.064172,0 -0.1166768,-0.11906 -0.1166768,-0.26458 z m 52.8670575,-0.18074 c 0.190995,-0.0764 0.419198,-0.067 0.507119,0.0209 0.08792,0.0879 -0.06835,0.15045 -0.347266,0.13896 -0.308226,-0.0127 -0.370919,-0.0754 -0.159853,-0.15985 z M 23.13521,107.84434 c 3.7e-4,-2.18282 0.04135,-3.04058 0.09107,-1.90614 0.04972,1.13444 0.04941,2.92037 -6.62e-4,3.96875 -0.0501,1.04837 -0.09078,0.1202 -0.09041,-2.06261 z m 24.785904,3.15295 c 0.0127,-0.30823 0.07539,-0.37092 0.159851,-0.15986 0.07643,0.191 0.06703,0.4192 -0.02088,0.50712 -0.08792,0.0879 -0.150452,-0.0683 -0.138964,-0.34726 z m 48.714025,-0.50712 c 0.0054,-0.43656 0.06469,-0.58313 0.131773,-0.32569 0.06708,0.25743 0.06267,0.61461 -0.0098,0.79375 -0.07246,0.17913 -0.127349,-0.0315 -0.121957,-0.46806 z m -70.430747,-1.70418 c 0,-0.63885 0.147138,-0.7033 0.357012,-0.15638 0.08197,0.21362 0.03518,0.45878 -0.103984,0.54478 -0.139165,0.086 -0.253028,-0.0888 -0.253028,-0.3884 z m 65.567057,0.33281 c 0.190995,-0.0764 0.419201,-0.067 0.507119,0.0209 0.08792,0.0879 -0.06835,0.15046 -0.347265,0.13897 -0.308227,-0.0127 -0.37092,-0.0754 -0.159854,-0.15986 z m -77.046511,-1.98434 c 0.07641,-0.12364 0.249771,-0.1563 0.385236,-0.0726 0.346176,0.21395 0.307197,0.29739 -0.138935,0.29739 -0.21188,0 -0.322715,-0.10116 -0.246301,-0.22481 z m 39.394869,-0.47772 c -0.09269,-0.14998 0.01352,-0.19434 0.248968,-0.10398 0.458369,0.17589 0.542234,0.36553 0.16165,0.36553 -0.136933,0 -0.321713,-0.11769 -0.410618,-0.26155 z m 11.37521,-0.003 c 0.08994,-0.14552 0.216027,-0.26458 0.280199,-0.26458 0.06417,0 0.116676,0.11906 0.116676,0.26458 0,0.14552 -0.12609,0.26458 -0.280199,0.26458 -0.154109,0 -0.206613,-0.11906 -0.116676,-0.26458 z m 31.6484,-1.10886 c -0.01688,-0.68264 0.06349,-1.29937 0.178597,-1.37051 0.115109,-0.0711 0.167777,0.30879 0.117041,0.84428 -0.15502,1.63613 -0.26342,1.82908 -0.295638,0.52623 z m -12.730692,-1.64096 c 0,-0.0572 0.184778,-0.17489 0.410618,-0.26155 0.235458,-0.0904 0.341662,-0.046 0.248968,0.10398 -0.15538,0.25141 -0.659586,0.37186 -0.659586,0.15757 z"
         id="path65" />
      <path
         style="fill:#606060;fill-opacity:1;stroke-width:0.264583"
         d="m 15.559651,117.57446 c 0.475549,-0.0589 1.189924,-0.0577 1.5875,0.003 0.397577,0.0604 0.0085,0.10855 -0.864634,0.10706 -0.873125,-0.001 -1.198414,-0.0509 -0.722866,-0.10976 z m 8.848295,-0.004 1.775428,-0.0923 0.07827,-2.17096 0.07827,-2.17097 0.130677,2.31572 0.130677,2.31573 -1.984375,-0.0524 -1.984375,-0.0524 1.775429,-0.0923 z m 38.193665,-1.20451 c 0.09936,-0.26094 0.247303,-0.40778 0.328766,-0.32632 0.08146,0.0815 1.69e-4,0.29495 -0.180653,0.47443 -0.261307,0.25936 -0.291698,0.22897 -0.148113,-0.14811 z m -26.144615,-4.08259 c 0.472943,-0.0587 1.246849,-0.0587 1.719792,0 0.472943,0.0587 0.08599,0.10671 -0.859896,0.10671 -0.945885,0 -1.332838,-0.048 -0.859896,-0.10671 z m 6.768923,-1.27545 c 0,-0.21188 0.09922,-0.38524 0.220488,-0.38524 0.121266,0 0.220485,0.11204 0.220485,0.24897 0,0.13693 -0.09922,0.31029 -0.220485,0.38524 -0.121269,0.0749 -0.220488,-0.0371 -0.220488,-0.24897 z m -23.768402,-1.70816 c -0.08994,-0.14552 -0.03743,-0.26458 0.116677,-0.26458 0.154109,0 0.280198,0.11906 0.280198,0.26458 0,0.14553 -0.0525,0.26459 -0.116677,0.26459 -0.06417,0 -0.190261,-0.11906 -0.280198,-0.26459 z m 81.380263,-0.15434 c 0.0127,-0.30822 0.0754,-0.37092 0.15985,-0.15985 0.0764,0.191 0.067,0.4192 -0.0209,0.50712 -0.0879,0.0879 -0.15046,-0.0683 -0.13897,-0.34727 z m -10.1412,-0.0209 c 0.181901,-0.0734 0.479557,-0.0734 0.661458,0 0.181901,0.0734 0.03307,0.13345 -0.330729,0.13345 -0.363802,0 -0.51263,-0.0601 -0.330729,-0.13345 z m -64.401486,-2.86748 c 9.52e-4,-1.16417 0.04748,-1.60751 0.103369,-0.9852 0.05589,0.62231 0.05511,1.57481 -0.0017,2.11667 -0.05685,0.54186 -0.102584,0.0327 -0.101623,-1.13147 z m 71.1615,-0.66146 c 0,-0.80037 0.0496,-1.12779 0.110223,-0.72761 0.06062,0.40019 0.06062,1.05503 0,1.45521 -0.06062,0.40018 -0.110223,0.0728 -0.110223,-0.7276 z m -84.61366,0.26458 c -0.08994,-0.14552 -0.03743,-0.26458 0.116677,-0.26458 0.154109,0 0.280198,0.11906 0.280198,0.26458 0,0.14552 -0.05251,0.26458 -0.116677,0.26458 -0.06417,0 -0.190261,-0.11906 -0.280198,-0.26458 z m 73.157291,-3.38289 c 0,-0.11433 0.229384,-0.20788 0.509741,-0.20788 0.280358,0 0.451925,0.0936 0.38126,0.20788 -0.07066,0.11434 -0.300048,0.20789 -0.509741,0.20789 -0.209693,0 -0.38126,-0.0936 -0.38126,-0.20789 z"
         id="path63" />
      <path
         style="fill:#494949;fill-opacity:1;stroke-width:0.264583"
         d="m 89.296638,114.83819 c -0.09592,-0.1552 -0.117655,-0.33893 -0.0483,-0.40828 0.06935,-0.0694 0.196601,0.0576 0.282773,0.28218 0.178906,0.46623 0.02643,0.54823 -0.234473,0.1261 z m -38.973387,-1.83448 c 0,-0.3638 0.06005,-0.51263 0.133453,-0.33073 0.0734,0.1819 0.0734,0.47956 0,0.66146 -0.0734,0.1819 -0.133453,0.0331 -0.133453,-0.33073 z m -35.720882,-1.78594 c -0.0218,-1.20054 0.04965,-2.18297 0.158794,-2.18317 0.109141,-2e-4 0.164791,0.68441 0.123668,1.52135 -0.130455,2.65502 -0.241536,2.91529 -0.282462,0.66182 z m 82.873913,-1.52135 c 5.29e-4,-1.60073 0.04417,-2.22146 0.09684,-1.3794 0.05267,0.84206 0.05218,2.15174 -0.0011,2.91041 -0.05329,0.75868 -0.09638,0.0697 -0.09578,-1.53101 z m -5.711,2.05279 c 0.915207,-0.0518 2.343957,-0.0514 3.175,9.5e-4 0.83104,0.0523 0.08223,0.0947 -1.664015,0.0942 -1.74625,-5.3e-4 -2.426195,-0.0433 -1.510985,-0.0952 z M 2.7321501,110.49017 c 0.00199,-0.7276 0.05337,-0.99386 0.1141854,-0.59168 0.060816,0.40219 0.059191,0.9975 -0.00361,1.32292 -0.062802,0.32542 -0.1125603,-0.004 -0.1105739,-0.73124 z m 46.7555749,-1.99999 c 0,-0.15411 0.119063,-0.20661 0.264584,-0.11668 0.145521,0.0899 0.264583,0.21603 0.264583,0.2802 0,0.0642 -0.119062,0.11668 -0.264583,0.11668 -0.145521,0 -0.264584,-0.12609 -0.264584,-0.2802 z m -7.9375,-0.77814 c 0,-0.14552 0.12609,-0.26458 0.2802,-0.26458 0.154109,0 0.206613,0.11906 0.116675,0.26458 -0.08994,0.14553 -0.216027,0.26459 -0.280199,0.26459 -0.06417,0 -0.116676,-0.11906 -0.116676,-0.26459 z m -30.670778,-1.21267 c 0.01269,-0.30822 0.07539,-0.37092 0.159852,-0.15985 0.07643,0.19099 0.06703,0.4192 -0.02089,0.50712 -0.08792,0.0879 -0.150453,-0.0683 -0.138965,-0.34727 z m 84.248903,-0.90399 c -0.08994,-0.14552 -0.03743,-0.26459 0.116676,-0.26459 0.15411,0 0.2802,0.11907 0.2802,0.26459 0,0.14552 -0.0525,0.26458 -0.116676,0.26458 -0.06417,0 -0.190262,-0.11906 -0.2802,-0.26458 z m 4.155612,-1.51886 c 0.975898,-0.0508 2.642778,-0.0511 3.704168,-7.4e-4 1.06139,0.0504 0.26293,0.0919 -1.77436,0.0923 -2.037294,4.2e-4 -2.905707,-0.0408 -1.929808,-0.0915 z"
         id="path61" />
      <path
         style="fill:#333333;fill-opacity:1;stroke-width:0.264583"
         d="m 89.176723,120.50862 c -7.94e-4,-0.0196 0.304128,-0.23597 0.677667,-0.48072 0.533228,-0.34939 0.760642,-0.37739 1.058333,-0.13033 0.632576,0.52499 0.432001,0.72818 -0.677667,0.68648 -0.58126,-0.0218 -1.05751,-0.0558 -1.058333,-0.0754 z m -25.732158,-0.27741 c -0.239527,-0.43461 0.0034,-3.83112 0.294913,-4.12258 0.165182,-0.16519 0.300331,-0.56029 0.300331,-0.87802 0,-0.76644 0.935217,-1.04346 0.991693,-0.29375 0.02207,0.29303 0.16919,0.61254 0.326929,0.71003 0.157742,0.0975 0.210498,0.37609 0.11724,0.61912 -0.09546,0.24878 -0.04157,0.44187 0.12333,0.44187 0.161092,0 0.292891,0.18661 0.292891,0.4147 0,0.2943 0.153638,0.36594 0.529167,0.24676 0.303559,-0.0964 0.529167,-0.0476 0.529167,0.11446 0,0.15533 -0.300604,0.28241 -0.668007,0.28241 -0.478452,0 -0.743329,-0.19811 -0.933445,-0.69815 -0.145989,-0.38399 -0.325459,-0.63813 -0.39882,-0.56477 -0.07336,0.0734 -0.363863,0.93933 -0.645562,1.92438 -0.539911,1.88797 -0.66671,2.15394 -0.859827,1.80354 z m 29.69941,-1.49486 c 0,-0.49994 0.255112,-0.69258 0.694079,-0.52414 0.289846,0.11123 0.307076,0.23014 0.07403,0.51094 -0.385442,0.46443 -0.768107,0.471 -0.768107,0.0132 z m -1.719791,-0.17639 c -0.08994,-0.14552 -0.03743,-0.26458 0.116676,-0.26458 0.154109,0 0.280199,0.11906 0.280199,0.26458 0,0.14552 -0.0525,0.26458 -0.116676,0.26458 -0.06417,0 -0.190262,-0.11906 -0.280199,-0.26458 z m -2.116667,-0.26458 c -0.08994,-0.14552 -0.03743,-0.26459 0.116676,-0.26459 0.154109,0 0.280199,0.11907 0.280199,0.26459 0,0.14552 -0.0525,0.26458 -0.116676,0.26458 -0.06417,0 -0.190262,-0.11906 -0.280199,-0.26458 z m 2.248959,-0.46947 c 0,-0.12293 -0.744141,-0.23648 -1.653646,-0.25234 -0.909506,-0.0159 -2.070365,-0.0388 -2.579688,-0.0509 l -0.926042,-0.0221 v -5.07038 c 0,-3.90737 0.07837,-5.09657 0.341646,-5.18457 0.232082,-0.0776 0.120156,-0.31947 -0.349014,-0.75428 -0.663816,-0.61521 -1.183257,-0.64083 -1.183257,-0.0584 0,0.1525 0.178594,0.20874 0.396876,0.12498 0.218281,-0.0838 0.396874,-0.0493 0.396874,0.0766 0,0.1259 -0.669387,0.23691 -1.487529,0.24668 l -1.487533,0.0178 0.484886,-0.58572 c 0.309264,-0.37357 0.210201,-0.32902 -0.273505,0.12301 l -0.758394,0.70871 0.05918,5.13417 c 0.04715,4.09028 -0.01172,5.13978 -0.289483,5.16178 -0.191767,0.0152 -0.902428,0.10109 -1.579245,0.19089 l -1.23058,0.16327 0.54442,-1.86629 c 0.505026,-1.73125 0.571222,-1.82802 0.914853,-1.33741 0.508254,0.72563 0.821957,0.66353 0.669769,-0.13259 -0.06955,-0.3638 -0.244367,-0.66146 -0.388493,-0.66146 -0.144124,0 -0.1948,-0.17524 -0.112612,-0.38942 0.235503,-0.61371 -0.362146,-2.04663 -0.78581,-1.88405 -0.208529,0.08 -0.365342,-0.0266 -0.365342,-0.24837 0,-0.21372 -0.178594,-0.38858 -0.396875,-0.38858 -0.3175,0 -0.396875,-0.39687 -0.396875,-1.98437 v -1.98438 h -1.984375 -1.984375 v 1.13176 c 0,1.14803 -0.495414,2.14703 -1.384583,2.79203 -0.460534,0.33406 -0.445344,0.39722 0.299548,1.2456 0.544372,0.62001 0.832434,1.28201 0.940617,2.16164 0.08576,0.69736 0.255892,1.77395 0.378056,2.39241 l 0.222117,1.12448 h -1.678045 c -1.876108,0 -1.764935,0.13477 -2.071606,-2.51121 -0.219816,-1.89657 -0.894972,-2.48197 -2.954541,-2.56179 -1.256909,-0.0487 -1.723335,0.0424 -2.088968,0.40803 -0.322532,0.32253 -0.528336,0.37755 -0.653669,0.17476 -0.187158,-0.30283 -1.97667,-0.24066 -2.297139,0.0798 -0.09739,0.0974 -0.03113,0.17707 0.14723,0.17707 0.178364,0 0.250712,0.11906 0.160774,0.26458 -0.08994,0.14552 -0.335089,0.26458 -0.544782,0.26458 -0.318579,0 -0.381259,-0.82646 -0.381259,-5.02708 v -5.02708 h 4.480692 c 2.464382,0 4.79066,0.11785 5.169511,0.26189 0.378849,0.14403 0.981914,0.57814 1.340141,0.96467 l 0.651323,0.70279 v -0.80153 c 0,-1.044 0.315147,-1.11969 4.680738,-1.12421 2.037257,-0.002 3.558185,-0.11375 3.653636,-0.2682 0.212683,-0.34412 1.190625,-0.34412 1.190625,0 0,0.14553 0.115327,0.26459 0.256281,0.26459 0.140952,0 0.191495,-0.20836 0.112313,-0.46302 -0.135681,-0.43638 -0.126735,-0.4362 0.155461,0.003 0.170448,0.26532 0.606441,0.45873 1.012164,0.44902 0.392007,-0.009 1.221015,0.0341 1.842241,0.0968 0.84914,0.0856 1.191932,0.007 1.381016,-0.31673 0.138335,-0.2368 0.255138,-0.29738 0.259562,-0.13462 0.0049,0.17954 0.790368,0.34614 1.99708,0.42359 2.122332,0.1362 2.526866,0.29437 2.028222,0.79301 -0.379606,0.37961 -0.417182,0.83199 -0.05027,0.60522 0.15231,-0.0941 0.239297,0.12181 0.206875,0.51356 -0.05399,0.65234 -0.118155,0.67598 -1.834706,0.67598 -0.978318,0 -1.826776,0.0893 -1.88546,0.19844 -0.05869,0.10914 -0.05321,0.70445 0.01217,1.32292 l 0.118874,1.12447 h 3.279503 3.2795 l 2.64e-4,1.25678 2.65e-4,1.25677 H 93.342651 90.10122 l -0.132292,1.5875 c -0.07908,0.94894 -0.21857,1.45418 -0.346787,1.25605 -0.308861,-0.47734 -1.240666,0.0766 -1.240666,0.73763 0,0.60897 0.739442,0.70466 0.96207,0.1245 0.229667,-0.5985 0.672648,-0.17023 0.473369,0.45765 -0.145685,0.459 -0.09425,0.51226 0.319966,0.33131 0.271455,-0.11858 0.761444,-0.22589 1.088866,-0.23846 0.389554,-0.0149 0.595313,-0.18828 0.595313,-0.50149 0,-0.26325 0.119062,-0.40505 0.264583,-0.31511 0.145521,0.0899 0.264583,0.0374 0.264583,-0.11668 0,-0.15411 -0.138906,-0.2802 -0.308681,-0.2802 -0.169772,0 -0.236318,-0.0724 -0.147876,-0.1608 0.08844,-0.0884 1.417974,-0.14424 2.954515,-0.124 l 2.793709,0.0368 v -5.18509 -5.18508 l 4.453328,0.0836 c 4.41738,0.0829 4.46119,0.0896 5.42781,0.82758 0.53597,0.40921 1.29079,1.36171 1.67738,2.11667 1.39508,2.7244 0.79371,7.09738 -1.24457,9.05017 -0.66116,0.63343 -1.0635,0.7561 -3.08965,0.94195 -1.28123,0.11753 -4.55972,0.21515 -7.285528,0.21694 -3.037266,0.002 -5.162796,0.11392 -5.490104,0.28909 -0.293746,0.15721 -0.534082,0.18526 -0.534082,0.0623 z m 8.532814,-2.08701 c -0.689612,-0.27826 -0.289345,-0.61852 0.7276,-0.61852 0.58209,0 1.05834,-0.0932 1.05834,-0.20718 0,-0.38754 1.39607,-0.14798 1.72012,0.29518 0.35398,0.48409 1.98404,0.61634 1.98404,0.16097 0,-0.15411 -0.11906,-0.20662 -0.26458,-0.11668 -0.15006,0.0927 -0.26458,-0.12955 -0.26458,-0.51355 0,-0.55718 0.12884,-0.68078 0.7276,-0.69796 0.40018,-0.0115 0.58775,-0.078 0.41681,-0.1477 -0.23146,-0.0944 -0.21457,-0.35708 0.0661,-1.02895 0.82582,-1.97646 0.2139,-4.23532 -1.44813,-5.34563 -0.67894,-0.45356 -1.27807,-0.60059 -2.44739,-0.60059 -0.85161,0 -1.5512,0.0298 -1.55464,0.0662 -0.003,0.0364 -0.11559,1.47805 -0.2492,3.20371 -0.1336,1.72565 -0.31335,3.20798 -0.39942,3.29406 -0.0861,0.0861 -0.569258,0.1565 -1.073728,0.1565 -0.555853,0 -0.93286,0.13551 -0.956911,0.34396 -0.02183,0.18918 -0.05159,0.48092 -0.06615,0.64832 -0.01455,0.1674 0.268346,0.34936 0.628661,0.40434 0.360315,0.055 0.753187,0.27522 0.873043,0.48939 0.119859,0.21417 0.360836,0.38001 0.535515,0.36852 0.23309,-0.0153 0.22959,-0.0564 -0.0131,-0.15434 z m -1.438674,-1.32843 c 0.190995,-0.0764 0.419201,-0.067 0.507119,0.0209 0.08792,0.0879 -0.06835,0.15045 -0.347266,0.13896 -0.308226,-0.0127 -0.370919,-0.0754 -0.159853,-0.15985 z m 1.322917,-0.26458 c 0.190997,-0.0764 0.419197,-0.067 0.507117,0.0209 0.0879,0.0879 -0.0683,0.15045 -0.34726,0.13896 -0.30823,-0.0127 -0.370923,-0.0754 -0.159857,-0.15985 z m 0.864247,-3.94235 c 0.0127,-0.30823 0.0754,-0.37092 0.15985,-0.15986 0.0764,0.191 0.067,0.4192 -0.0209,0.50712 -0.0879,0.0879 -0.15046,-0.0683 -0.13897,-0.34726 z m -33.755263,1.74184 c 0.08994,-0.14552 -0.02209,-0.26459 -0.248967,-0.26459 -0.22687,0 -0.412491,0.11907 -0.412491,0.26459 0,0.14552 0.112035,0.26458 0.248967,0.26458 0.136933,0 0.322554,-0.11906 0.412491,-0.26458 z m -2.619375,-1.21709 c -0.09416,-0.24538 -0.230738,-0.38662 -0.303498,-0.31386 -0.07276,0.0728 -0.05525,0.33306 0.03892,0.57845 0.09416,0.24538 0.230738,0.38662 0.303498,0.31386 0.07276,-0.0728 0.05525,-0.33306 -0.03891,-0.57845 z m 6.839479,0.12902 c 0.446247,-0.41694 -0.519443,-0.25695 -1.06068,0.17573 -0.49358,0.39457 -0.48782,0.40372 0.147868,0.23484 0.363802,-0.0967 0.774568,-0.28141 0.912812,-0.41057 z m -1.513636,-0.13012 c -0.08792,-0.0879 -0.316124,-0.0973 -0.507119,-0.0209 -0.211066,0.0845 -0.148373,0.14716 0.159853,0.15986 0.278914,0.0115 0.435184,-0.051 0.347266,-0.13897 z m 1.487281,-0.69795 c -0.06674,-0.10798 -0.01003,-0.39527 0.126048,-0.63841 0.223067,-0.3986 0.263879,-0.39013 0.415028,0.0861 0.0922,0.29049 0.345654,0.52817 0.563234,0.52817 0.302604,0 0.270605,-0.11645 -0.136125,-0.49538 -0.296815,-0.27652 -0.531725,-0.83486 -0.531725,-1.26381 0,-1.16755 -0.822286,-1.5922 -3.083111,-1.5922 h -1.907034 l 0.240707,0.8393 c 0.157972,0.55081 0.144111,0.95569 -0.04033,1.17793 -0.368398,0.44389 -0.06525,1.36574 0.483902,1.47149 0.872813,0.16809 3.986943,0.077 3.869404,-0.11319 z m -5.456031,-1.15413 c -0.08792,-0.0879 -0.316124,-0.0973 -0.507119,-0.0209 -0.211066,0.0845 -0.148373,0.14716 0.159853,0.15985 0.278914,0.0115 0.435184,-0.051 0.347266,-0.13896 z m 22.266233,-3.01515 c 0.01712,-0.30432 -0.02795,-0.31765 -0.193218,-0.0572 -0.122547,0.19313 -0.434715,0.26943 -0.723553,0.17683 -0.477827,-0.15317 -0.480499,-0.14018 -0.04499,0.21865 0.254661,0.20982 0.47489,0.6065 0.489394,0.88149 0.02008,0.38094 0.07682,0.34249 0.23821,-0.16146 0.116509,-0.3638 0.221882,-0.84005 0.234159,-1.05833 z m -22.194576,0.79375 c 0,-0.14552 -0.119062,-0.26458 -0.264583,-0.26458 -0.145521,0 -0.264583,0.11906 -0.264583,0.26458 0,0.14552 0.119062,0.26458 0.264583,0.26458 0.145521,0 0.264583,-0.11906 0.264583,-0.26458 z m 15.752244,-2.06303 c -0.08682,-0.0868 -0.47897,0.16324 -0.871437,0.55571 -0.534964,0.53496 -0.60729,0.71357 -0.288962,0.71357 0.233537,0 0.588018,0.19848 0.787739,0.44108 0.32318,0.39255 0.372332,0.33142 0.446825,-0.55571 0.04604,-0.54824 0.01265,-1.06783 -0.07416,-1.15465 z m -0.538702,0.74011 c 0.08994,-0.14552 0.216027,-0.26458 0.280199,-0.26458 0.06417,0 0.116676,0.11906 0.116676,0.26458 0,0.14553 -0.12609,0.26459 -0.280199,0.26459 -0.154109,0 -0.206613,-0.11906 -0.116676,-0.26459 z m -3.307292,0.19189 c 0,-0.13668 -0.208359,-0.16272 -0.463021,-0.0579 -0.254661,0.10484 -0.67138,0.25052 -0.926041,0.32375 -0.254662,0.0732 -0.463021,0.22716 -0.463021,0.34209 0,0.11493 0.416719,0.0811 0.926042,-0.0752 0.509322,-0.15632 0.926041,-0.39604 0.926041,-0.53271 z m 24.601008,0.0727 c 0.002,-0.0728 -0.41519,-0.15373 -0.92615,-0.17992 -0.51663,-0.0265 -0.86153,0.0616 -0.77695,0.19844 0.0836,0.13533 0.38317,0.24606 0.66562,0.24606 0.28246,0 0.51538,0.14883 0.51761,0.33073 0.003,0.22049 0.0895,0.19844 0.26053,-0.0662 0.14106,-0.21828 0.25777,-0.4564 0.25934,-0.52916 z M 79.350519,105.413 c 0.226184,-0.43508 0.224927,-0.62636 -0.005,-0.76849 -0.189955,-0.1174 -0.234519,-0.0733 -0.117393,0.11624 0.168576,0.27276 -0.147603,0.42438 -0.702339,0.33679 -0.109141,-0.0172 -0.198438,0.0332 -0.198438,0.11213 0,0.14314 0.634286,0.89688 0.691766,0.82204 0.01667,-0.0217 0.165817,-0.30012 0.331444,-0.61871 z m 6.07138,-0.59619 c 0.08493,-0.25479 -0.01529,-0.26388 -0.434657,-0.0395 -0.796274,0.42615 -0.99445,0.85843 -0.270825,0.59075 0.327305,-0.12108 0.644771,-0.36916 0.705482,-0.5513 z m 1.05678,0.49414 c -0.05214,-0.15643 -0.207917,-0.28443 -0.346162,-0.28443 -0.138245,0 -0.294018,0.128 -0.346162,0.28443 -0.05215,0.15644 0.103627,0.28443 0.346162,0.28443 0.242536,0 0.398309,-0.12799 0.346162,-0.28443 z m -21.353073,-0.85228 c -0.33959,-0.33958 -0.683961,-0.0771 -0.432551,0.32967 0.09739,0.15758 0.298278,0.21159 0.446423,0.12003 0.18071,-0.11168 0.176146,-0.25968 -0.01386,-0.4497 z m 12.804828,0.34296 c -0.08994,-0.14552 -0.282583,-0.26459 -0.428104,-0.26459 -0.145521,0 -0.191,0.11907 -0.101063,0.26459 0.08994,0.14552 0.282583,0.26458 0.428104,0.26458 0.145521,0 0.191,-0.11906 0.101063,-0.26458 z m 6.019271,-0.45131 c -0.327422,-0.0631 -0.863203,-0.0631 -1.190625,0 -0.327422,0.0631 -0.05953,0.11466 0.595312,0.11466 0.654844,0 0.922735,-0.0516 0.595313,-0.11466 z M 7.2866838,117.58588 c -1.4506665,-0.32551 -2.3388865,-0.72539 -3.0461584,-1.37138 -0.6841834,-0.6249 -0.7707527,-0.86928 -0.7179969,-2.02683 0.043896,-0.96316 0.1664521,-1.31815 0.4568637,-1.32333 0.2586331,-0.005 0.3727447,-0.22426 0.3276,-0.63058 -0.038101,-0.34292 0.052237,-0.76991 0.2007512,-0.94886 0.2047969,-0.24676 0.109681,-0.29471 -0.3937459,-0.19847 -0.3650746,0.0698 -0.663772,0.2391 -0.663772,0.37624 0,0.13714 0.1345087,0.16622 0.2989082,0.0646 0.1814158,-0.11212 0.2507979,-0.0403 0.1765125,0.18282 -0.067318,0.20216 -0.3028366,0.40258 -0.5233755,0.44538 -0.3217613,0.0624 -0.4347275,-0.35573 -0.5718016,-2.11667 -0.093952,-1.20696 -0.1715355,-2.95136 -0.1724078,-3.87644 -0.00131,-1.39044 0.0672,-1.65412 0.3952892,-1.52135 0.2182813,0.0883 0.5950003,0.24036 0.8371535,0.33785 0.2430806,0.0979 0.3740242,0.0682 0.2923542,-0.0661 -0.081358,-0.13387 0.040836,-0.4181 0.2715439,-0.63161 0.3712104,-0.34355 0.400124,-0.3378 0.251323,0.05 -0.1273516,0.33187 0.00486,0.45815 0.5449484,0.5205 l 0.7130937,0.0823 0.053985,4.19507 c 0.060997,4.73992 0.2445941,5.32053 1.7730936,5.60728 1.0268402,0.19263 1.9277743,-0.0198 2.6046922,-0.61424 0.395125,-0.34696 0.463021,-0.89718 0.463021,-3.75224 0,-2.05643 0.110839,-3.4565 0.287637,-3.6333 0.198002,-0.198 0.201603,-0.34081 0.01155,-0.45826 -0.357091,-0.2207 -0.0867,-0.93644 0.318017,-0.8418 0.169858,0.0397 0.219536,0.0223 0.110395,-0.0388 -0.10914,-0.061 -0.198437,-0.27964 -0.198437,-0.4858 0,-0.20615 -0.126089,-0.37483 -0.280198,-0.37483 -0.154109,0 -0.206613,-0.11906 -0.116676,-0.26458 0.08994,-0.14552 0.861515,-0.26458 1.714619,-0.26458 h 1.551098 l 0.02867,4.59921 c 0.02515,4.03361 -0.03806,4.77755 -0.513924,6.04943 -0.618557,1.65324 -1.234564,2.33044 -1.991612,2.18947 -0.288348,-0.0537 -0.628145,-0.10674 -0.755104,-0.11787 -0.126958,-0.0111 -0.09823,-0.18003 0.06385,-0.37532 0.162076,-0.19529 0.216342,-0.43341 0.120591,-0.52916 -0.302373,-0.30238 -0.615066,-0.18912 -0.615066,0.22278 0,0.21828 -0.133641,0.39687 -0.29698,0.39687 -0.203093,0 -0.191174,0.12749 0.0377,0.40327 0.184076,0.2218 0.287951,0.4438 0.230834,0.49333 -0.198701,0.1723 -2.7531546,0.36395 -3.2788492,0.24599 z m -2.8619677,-2.7797 c -0.084462,-0.21106 -0.1471567,-0.14837 -0.1598524,0.15986 -0.011489,0.27891 0.051045,0.43518 0.1389642,0.34726 0.087919,-0.0879 0.097319,-0.31612 0.020888,-0.50712 z m 0.5291666,-1.05833 c -0.084462,-0.21107 -0.1471566,-0.14837 -0.1598524,0.15985 -0.011489,0.27892 0.051045,0.43519 0.1389643,0.34727 0.087919,-0.0879 0.097319,-0.31612 0.020888,-0.50712 z m 0.6130095,-1.80247 c 0,-0.14552 -0.1260893,-0.26459 -0.2801983,-0.26459 -0.154109,0 -0.2066136,0.11907 -0.1166767,0.26459 0.089937,0.14552 0.2160259,0.26458 0.2801982,0.26458 0.064172,0 0.1166768,-0.11906 0.1166768,-0.26458 z m -1.4067595,-2.96003 c -0.084462,-0.21107 -0.1471566,-0.14837 -0.1598524,0.15985 -0.011488,0.27892 0.051045,0.43519 0.1389643,0.34727 0.087919,-0.0879 0.097319,-0.31612 0.020888,-0.50712 z m 0.5291667,-0.52917 c -0.084462,-0.21106 -0.1471567,-0.14837 -0.1598524,0.15986 -0.011489,0.27891 0.051045,0.43518 0.1389643,0.34726 0.087919,-0.0879 0.097319,-0.31612 0.020888,-0.50712 z m 7.9399326,-0.74414 c 0,-1.11855 -0.07699,-1.20434 -0.71234,-0.79375 -0.306236,0.19791 -0.314878,0.25741 -0.03784,0.26054 0.209805,0.002 0.295736,0.16901 0.206741,0.40092 -0.170534,0.44441 0.04749,1.19063 0.347866,1.19063 0.107564,0 0.195571,-0.47625 0.195571,-1.05834 z m 0.610577,-2.0156 c 0,-0.21828 -0.119063,-0.32329 -0.264583,-0.23335 -0.145521,0.0899 -0.264584,0.34211 -0.264584,0.56039 0,0.21828 0.119063,0.32329 0.264584,0.23336 0.14552,-0.0899 0.264583,-0.34212 0.264583,-0.5604 z m 18.833073,11.79883 c -2.597398,-0.37816 -4.653923,-2.12717 -5.406032,-4.59767 -0.316479,-1.03955 -0.333284,-0.96611 -0.405384,1.77164 l -0.07522,2.85615 -1.762038,-0.078 -1.762038,-0.078 -1.541098,-2.72019 c -1.291116,-2.27895 -1.494593,-2.80708 -1.2544,-3.25589 0.272957,-0.51002 0.323916,-0.48886 1.063249,0.44147 0.427104,0.53744 0.790364,1.22868 0.807244,1.53609 0.02454,0.44697 0.05493,0.46618 0.151693,0.0959 0.06655,-0.25466 0.290863,-0.46302 0.498474,-0.46302 0.207611,0 0.377475,-0.12609 0.377475,-0.2802 0,-0.15411 0.119062,-0.20661 0.264583,-0.11667 0.17232,0.1065 0.264583,-1.36427 0.264583,-4.21772 v -4.38124 h 1.455209 1.455208 l 0.01791,2.84427 c 0.01367,2.17103 0.08039,2.6877 0.281884,2.18281 1.20411,-3.01719 2.527168,-4.29056 4.991876,-4.8044 2.810724,-0.58598 5.262893,0.37612 6.810002,2.67187 0.568812,0.84407 0.599834,0.85657 0.628798,0.25343 0.01675,-0.34894 0.01188,-0.87257 -0.01082,-1.16361 -0.03864,-0.49516 -0.01019,-0.49015 0.442683,0.0781 0.266186,0.33398 0.568716,0.52249 0.672285,0.41892 0.322596,-0.3226 0.207153,-0.62928 -0.236879,-0.62928 -0.26552,0 -0.369096,-0.14616 -0.275825,-0.38922 0.08215,-0.21407 -0.02111,-0.55969 -0.229476,-0.76805 -0.328724,-0.32872 -0.324374,-0.39973 0.03288,-0.53682 0.226441,-0.0869 0.943438,-0.15799 1.593324,-0.15799 h 1.18161 l -0.07877,1.65364 -0.07877,1.65365 -0.79375,-0.0698 c -0.760492,-0.0669 -0.771896,-0.0528 -0.272175,0.33657 0.286864,0.22351 0.681604,0.34498 0.877197,0.26993 0.253614,-0.0973 0.307597,0.0148 0.188198,0.39104 -0.0996,0.31383 -0.0467,0.5275 0.130607,0.5275 0.163914,0 0.224443,0.11906 0.134506,0.26458 -0.232381,0.376 -0.55988,0.32837 -1.039434,-0.15119 -0.228677,-0.22868 -0.415775,-0.31467 -0.415775,-0.19109 0,0.12357 0.238126,0.42857 0.529167,0.67777 0.291042,0.24919 0.529167,0.61633 0.529167,0.81586 0,0.24712 0.217236,0.32124 0.681442,0.2325 0.548053,-0.10476 0.652815,-0.24432 0.535191,-0.71296 -0.14107,-0.56208 -0.07542,-0.58269 1.85538,-0.58269 1.438855,0 2.06833,-0.10539 2.238878,-0.37483 0.181433,-0.28664 0.23821,-0.29334 0.241308,-0.0285 0.0021,0.19049 0.130868,0.26796 0.285869,0.17217 0.186878,-0.1155 0.142312,-0.32833 -0.132292,-0.63176 -0.47263,-0.52225 -0.553074,-1.34197 -0.131696,-1.34197 0.159494,0 0.211214,0.22433 0.118827,0.51541 -0.123846,0.39021 0.02931,0.61517 0.630489,0.92605 0.99581,0.51495 1.181854,0.51566 0.985414,0.004 -0.08885,-0.23153 0.01299,-0.47179 0.236276,-0.55748 0.507807,-0.19486 0.511836,-1.1523 0.0048,-1.1523 -0.213162,0 -0.515006,0.23813 -0.670767,0.52917 -0.301045,0.56251 -0.79375,0.71705 -0.79375,0.24897 0,-0.15411 0.119063,-0.20662 0.264584,-0.11668 0.145521,0.0899 0.264583,0.0337 0.264583,-0.12498 0,-0.15868 -0.199654,-0.36512 -0.443677,-0.45876 -0.396436,-0.15212 -0.389393,-0.19027 0.06615,-0.35825 0.450614,-0.16617 0.42532,-0.21022 -0.217781,-0.37929 -0.613127,-0.1612 -0.727604,-0.33248 -0.727604,-1.08865 v -0.89736 h 1.707766 1.707764 l -0.649431,0.64943 c -0.67373,0.67373 -0.842986,1.20265 -0.38485,1.20265 0.145521,0 0.264584,-0.12757 0.264584,-0.28348 0,-0.15592 0.178594,-0.46208 0.396875,-0.68036 0.352777,-0.35278 0.396875,-0.20729 0.396875,1.30942 0,1.604 -0.412382,2.59343 -0.88424,2.12157 -0.09575,-0.0958 -0.174094,-0.0536 -0.174094,0.0936 0,0.14722 0.238125,0.48317 0.529167,0.74656 0.40063,0.36257 0.529167,0.81491 0.529167,1.86223 0,1.16083 -0.08512,1.40561 -0.529167,1.52173 -0.291042,0.0761 -0.529167,0.27973 -0.529167,0.4525 0,0.17277 0.238125,0.3764 0.529167,0.4525 0.602427,0.15754 0.715687,1.09604 0.198438,1.64432 -0.264584,0.28046 -0.264584,0.37483 0,0.47184 0.181901,0.0667 0.330729,0.40901 0.330729,0.76068 0,0.40273 0.152683,0.63941 0.412491,0.63941 0.262405,0 0.33819,-0.12022 0.208282,-0.33041 -0.112313,-0.18173 -0.208939,-0.56868 -0.214722,-0.8599 -0.01183,-0.59538 1.379172,-4.87251 2.230001,-6.85696 0.384307,-0.89635 0.472442,-1.38548 0.283659,-1.57427 -0.326051,-0.32605 -0.364707,-1.40359 -0.05717,-1.59366 0.119189,-0.0737 0.16242,0.23596 0.09606,0.68805 -0.101637,0.69251 -0.04901,0.7945 0.334097,0.64748 0.250108,-0.096 0.593831,-0.17632 0.763831,-0.17855 0.186021,-0.002 0.158186,-0.0995 -0.06991,-0.24388 -0.326816,-0.20681 -0.320746,-0.38812 0.04408,-1.31689 0.24054,-0.61235 0.318442,-1.14172 0.180559,-1.22694 -0.133387,-0.0824 -0.233122,-0.29168 -0.221633,-0.465 0.01564,-0.23592 0.05372,-0.2341 0.151548,0.007 0.07186,0.1773 0.538713,0.39891 1.037444,0.49247 0.652539,0.12242 0.906785,0.31022 0.906785,0.66983 0,0.27485 0.119063,0.49972 0.264584,0.49972 0.145521,0 0.264583,-0.24603 0.264583,-0.54674 0,-0.43886 0.141685,-0.53022 0.718077,-0.46302 0.663768,0.0774 0.823285,0.36388 2.109139,3.78789 0.765085,2.03729 1.627666,4.32701 1.916848,5.08826 l 0.525785,1.3841 -1.11357,-0.0859 c -0.612463,-0.0472 -1.26124,0.0282 -1.441725,0.16752 -0.530418,0.40953 -3.793763,0.58717 -4.021368,0.2189 -0.365112,-0.59077 -1.845162,0.51985 -2.141696,1.6071 -0.301244,1.10453 -0.579903,1.26621 -1.734894,1.00662 -0.449779,-0.10109 -1.729701,-0.14393 -2.844271,-0.0952 l -2.026491,0.0886 v -0.78742 c 0,-0.46568 0.139154,-0.78742 0.340571,-0.78742 0.187312,0 0.359275,-0.24832 0.382138,-0.55182 0.0249,-0.33052 -0.08516,-0.50319 -0.274426,-0.43056 -0.397489,0.15253 -0.44808,-2.76158 -0.05286,-3.04457 0.146319,-0.10476 -0.210217,-0.14642 -0.792301,-0.0926 -0.700021,0.0648 -1.215644,-0.0419 -1.522976,-0.31501 -0.255553,-0.22711 -0.549761,-0.32781 -0.653796,-0.22378 -0.104034,0.10403 -0.014,0.29992 0.20006,0.4353 0.300148,0.18982 0.307864,0.24707 0.03371,0.2502 -0.195524,0.002 -0.417769,-0.23408 -0.493879,-0.52512 -0.07611,-0.29104 -0.258136,-0.52917 -0.404503,-0.52917 -0.149458,0 -0.120661,-0.17527 0.06569,-0.39981 0.293883,-0.3541 0.375441,-0.34654 0.713478,0.0662 0.209915,0.25628 0.312208,0.32673 0.227319,0.15656 -0.08489,-0.17017 0.01601,-0.47974 0.224187,-0.68793 0.328321,-0.32832 0.272126,-0.38156 -0.423624,-0.40134 -0.582314,-0.0166 -0.838873,0.11759 -0.936125,0.48949 -0.07368,0.28177 -0.228661,0.5123 -0.344398,0.5123 -0.115734,0 -0.17775,0.29766 -0.137816,0.66146 0.0624,0.56841 -0.03393,0.66146 -0.684755,0.66146 -0.416552,0 -0.757367,-0.12609 -0.757367,-0.2802 0,-0.15411 -0.131773,-0.19876 -0.29283,-0.0992 -0.190223,0.11756 -0.199859,0.23893 -0.0275,0.34634 0.145931,0.091 0.406604,1.09923 0.579271,2.24062 0.355624,2.35078 0.06904,3.61329 -0.820203,3.61329 -0.273386,0 -0.497068,-0.11075 -0.497068,-0.24611 0,-0.15177 -0.328982,-0.15177 -0.858149,0 -0.471982,0.13536 -0.896475,0.24611 -0.943316,0.24611 -0.04685,0 -0.05823,-0.92273 -0.02529,-2.05052 0.05863,-2.0078 -0.237008,-2.6006 -0.606999,-1.21716 -0.260199,0.97292 -1.115099,1.80148 -2.409407,2.33517 -0.610475,0.25171 -1.316699,0.56451 -1.569386,0.69509 -0.252688,0.13058 -0.550344,0.22257 -0.661459,0.20441 -0.111114,-0.0181 -0.835427,-0.12522 -1.609579,-0.23793 z m 8.78863,-2.15441 c -0.07494,-0.12126 -0.248303,-0.22048 -0.385236,-0.22048 -0.136932,0 -0.248967,0.0992 -0.248967,0.22048 0,0.12127 0.173357,0.22049 0.385236,0.22049 0.211881,0 0.323916,-0.0992 0.248967,-0.22049 z m -6.260801,-1.16779 c 0.325112,-0.21027 0.665441,-0.67845 0.756288,-1.04041 0.154411,-0.61523 0.275389,-0.65812 1.856285,-0.65812 1.326819,0 1.691108,0.0855 1.691108,0.39688 0,0.21828 0.119063,0.39687 0.264584,0.39687 0.336034,0 0.345783,-0.87122 0.01347,-1.20385 -0.138113,-0.13824 -0.286941,-1.07384 -0.330729,-2.0791 -0.06546,-1.50254 -0.162005,-1.83968 -0.542642,-1.89482 -0.254662,-0.0369 -0.463021,0.10099 -0.463021,0.30639 0,0.25037 -0.283435,0.36477 -0.859896,0.34709 -0.814716,-0.025 -0.82514,-0.0375 -0.19843,-0.23821 0.664136,-0.21269 0.303652,-0.37146 -0.621905,-0.27391 -0.269291,0.0284 -0.747165,-0.19035 -1.061945,-0.48607 -0.827434,-0.77734 -2.581111,-1.46903 -2.8052,-1.10644 -0.09839,0.15919 -0.46487,0.25731 -0.814403,0.21804 -0.349533,-0.0393 -0.649309,0.0477 -0.666168,0.19318 -0.01685,0.14552 -0.298948,0.84242 -0.626859,1.54868 -0.464696,1.00085 -0.560795,1.55528 -0.435666,2.51354 0.0883,0.67619 0.188606,1.55686 0.222907,1.95705 0.0343,0.40018 0.133363,0.69784 0.220138,0.66145 0.08677,-0.0364 0.347052,0.091 0.578395,0.28295 1.036402,0.86013 2.63656,0.92659 3.823692,0.15881 z m 5.494306,0.41814 c -0.08994,-0.14552 -0.03743,-0.26458 0.116676,-0.26458 0.154109,0 0.280199,-0.11907 0.280199,-0.26459 0,-0.14552 -0.242313,-0.26458 -0.538475,-0.26458 -0.456488,0 -0.495355,0.0806 -0.255275,0.52917 0.15576,0.29104 0.34557,0.52916 0.421799,0.52916 0.07623,0 0.06501,-0.11906 -0.02492,-0.26458 z m 0.600885,-1.80265 c 0.06445,-0.19335 -0.05651,-0.25248 -0.314193,-0.1536 -0.230441,0.0884 -0.418984,0.27703 -0.418984,0.41911 0,0.34776 0.60134,0.13 0.733177,-0.26551 z m 16.883663,-0.0494 c 0.710986,0 0.762963,-0.16976 0.369139,-1.20559 -0.194919,-0.51267 -0.182036,-0.81718 0.04621,-1.09219 0.267931,-0.32284 0.197779,-0.35175 -0.457334,-0.18851 -0.682033,0.16994 -0.733256,0.14357 -0.431893,-0.22239 0.280466,-0.34059 0.274293,-0.57434 -0.03435,-1.30066 -0.424381,-0.99868 -0.387869,-1.0494 -1.316289,1.82824 -0.340691,1.05597 -0.560678,1.97871 -0.488865,2.05052 0.07182,0.0718 0.408387,0.13058 0.747937,0.13058 0.339548,0 0.626761,0.14883 0.638249,0.33073 0.01672,0.26458 0.04758,0.26458 0.15434,0 0.0734,-0.1819 0.421187,-0.33073 0.772861,-0.33073 z m -10.716784,-1.65365 c 0.01672,-0.26458 0.04758,-0.26458 0.154339,0 0.188714,0.46768 1.147689,0.41241 1.147689,-0.0661 0,-0.21829 0.107156,-0.39688 0.238125,-0.39688 0.130969,0 0.238125,-0.41672 0.238125,-0.92604 0,-1.03192 -0.433583,-1.2142 -0.944015,-0.39688 -0.181758,0.29105 -0.494361,0.52917 -0.694671,0.52917 -0.528392,0 -1.303169,1.24368 -0.881235,1.41456 0.548997,0.22234 0.719931,0.18597 0.741643,-0.15779 z m 2.492653,-0.99219 c 0.08994,-0.14552 0.03743,-0.26458 -0.116676,-0.26458 -0.154109,0 -0.280199,0.11906 -0.280199,0.26458 0,0.14553 0.0525,0.26459 0.116676,0.26459 0.06417,0 0.190262,-0.11906 0.280199,-0.26459 z m -12.567709,-3.43958 c 0,-0.14552 -0.119062,-0.26458 -0.264583,-0.26458 -0.145521,0 -0.264583,0.11906 -0.264583,0.26458 0,0.14552 0.119062,0.26458 0.264583,0.26458 0.145521,0 0.264583,-0.11906 0.264583,-0.26458 z m 21.166667,-0.26458 c 0,-0.14552 -0.112035,-0.26459 -0.248967,-0.26459 -0.136933,0 -0.322554,0.11907 -0.412491,0.26459 -0.08994,0.14552 0.02209,0.26458 0.248967,0.26458 0.22687,0 0.412491,-0.11906 0.412491,-0.26458 z m -43.390463,9.98802 c 6.61e-4,-0.61847 0.07838,-2.46393 0.172717,-4.10104 0.166181,-2.88402 0.433072,-3.6805 0.775763,-2.31511 0.202885,0.80836 0.306633,0.81627 1.087289,0.0829 1.014846,-0.9534 1.182475,-0.32617 0.578186,2.16345 -0.368596,1.51857 -0.450305,2.26765 -0.254475,2.33293 0.158646,0.0529 0.221147,0.20504 0.138892,0.33813 -0.08226,0.13309 0.03606,0.24199 0.262935,0.24199 0.312488,0 0.412489,0.28865 0.412489,1.19062 v 1.19063 h -1.5875 -1.5875 l 0.0012,-1.12448 z m 2.380046,-0.72761 c 0,-0.14552 -0.18562,-0.26458 -0.412489,-0.26458 -0.22687,0 -0.338906,0.11906 -0.248969,0.26458 0.08994,0.14552 0.275557,0.26459 0.41249,0.26459 0.136933,0 0.248968,-0.11907 0.248968,-0.26459 z m -1.719791,-2.11666 c 0.08994,-0.14552 0.03743,-0.26459 -0.116677,-0.26459 -0.154109,0 -0.280198,0.11907 -0.280198,0.26459 0,0.14552 0.0525,0.26458 0.116677,0.26458 0.06417,0 0.190261,-0.11906 0.280198,-0.26458 z m 44.716456,3.70719 c -0.09269,-0.14998 0.01352,-0.19433 0.248968,-0.10398 0.458369,0.17589 0.542234,0.36554 0.16165,0.36554 -0.136933,0 -0.321712,-0.1177 -0.410618,-0.26156 z m 1.088578,0.0489 c -0.07227,-0.11693 0.277889,-0.22421 0.778137,-0.23839 0.500245,-0.0142 0.909537,0.0815 0.909537,0.21261 0,0.29531 -1.506868,0.31833 -1.687674,0.0258 z m -6.774942,-0.77733 c 0.0021,-0.40141 0.09153,-0.59887 0.198438,-0.43879 0.106913,0.16008 0.344389,0.33907 0.527727,0.39775 0.220684,0.0706 0.15362,0.21892 -0.198437,0.43879 -0.484593,0.30263 -0.531419,0.26734 -0.527728,-0.39775 z m -7.941551,0.0795 c 0,-0.20969 0.09355,-0.43908 0.207886,-0.50974 0.11434,-0.0707 0.207889,0.1009 0.207889,0.38126 0,0.28036 -0.09355,0.50974 -0.207889,0.50974 -0.114337,0 -0.207886,-0.17157 -0.207886,-0.38126 z m 15.081251,-0.36448 c 0,-0.31976 0.501967,-0.69257 0.685456,-0.50908 0.06659,0.0666 -0.06039,0.27169 -0.282187,0.45576 -0.251457,0.20869 -0.403269,0.22877 -0.403269,0.0533 z m 1.079222,-0.20235 c 0.0127,-0.30822 0.07539,-0.37092 0.15985,-0.15985 0.07643,0.19099 0.06703,0.4192 -0.02088,0.50712 -0.08792,0.0879 -0.150453,-0.0683 -0.138965,-0.34727 z m -2.997452,-0.55005 c 0.181901,-0.0734 0.479558,-0.0734 0.661459,0 0.181901,0.0734 0.03307,0.13345 -0.33073,0.13345 -0.363802,0 -0.51263,-0.0601 -0.330729,-0.13345 z m 32.609896,-2.71958 c 0,-0.13693 0.119063,-0.32255 0.264583,-0.41249 0.145521,-0.0899 0.264584,0.0221 0.264584,0.24897 0,0.22687 -0.119063,0.41249 -0.264584,0.41249 -0.14552,0 -0.264583,-0.11203 -0.264583,-0.24897 z m -41.010416,-1.33853 c 0,-0.14552 0.126089,-0.26458 0.280199,-0.26458 0.154109,0 0.206613,0.11906 0.116675,0.26458 -0.08994,0.14552 -0.216027,0.26458 -0.280199,0.26458 -0.06417,0 -0.116675,-0.11906 -0.116675,-0.26458 z M 18.940181,110.6597 c -0.08587,-0.27054 -0.08063,-0.68861 0.01163,-0.92904 0.120227,-0.3133 0.05664,-0.39451 -0.224441,-0.28665 -0.219998,0.0844 -0.46162,-0.0304 -0.550322,-0.26158 -0.08697,-0.22665 -0.34046,-0.41208 -0.563308,-0.41208 -0.454396,0 -0.530819,-0.71909 -0.140596,-1.32292 0.211182,-0.32678 0.257196,-0.33067 0.260532,-0.0221 0.0022,0.20616 0.08055,0.29833 0.174047,0.20483 0.0935,-0.0935 0.02764,-0.34151 -0.146343,-0.55115 -0.2534,-0.30533 -0.225181,-0.39872 0.141841,-0.46942 0.415287,-0.08 0.419366,-0.1254 0.04358,-0.48513 -1.03737,-0.99301 -1.609696,-1.34971 -1.953779,-1.21767 -0.204576,0.0785 -0.371957,0.0194 -0.371957,-0.13138 0,-0.1588 -0.235758,-0.19928 -0.56047,-0.0962 -0.405072,0.12857 -0.527605,0.0785 -0.441935,-0.18061 0.07964,-0.24086 0.678968,-0.38374 1.826463,-0.43543 l 1.707928,-0.0769 1.567574,2.72277 c 0.862166,1.49752 1.657394,2.76102 1.767174,2.80778 0.387369,0.16499 -0.399358,1.03283 -0.8334,0.91932 -0.24205,-0.0633 -0.595181,0.0718 -0.784735,0.30019 -0.45466,0.54783 -0.738715,0.52441 -0.929477,-0.0766 z m 1.046503,-1.36019 c -0.08994,-0.14552 -0.282584,-0.26458 -0.428105,-0.26458 -0.145521,0 -0.190999,0.11906 -0.101062,0.26458 0.08994,0.14553 0.282584,0.26459 0.428105,0.26459 0.145521,0 0.190999,-0.11906 0.101062,-0.26459 z m -1.358657,-1.38074 c -0.22723,-0.36767 -0.611552,0.0515 -0.445051,0.48536 0.123072,0.32072 0.203587,0.33611 0.367862,0.0703 0.115668,-0.18716 0.150403,-0.43721 0.07719,-0.55567 z m 0.697198,0.58699 c 0,-0.14552 -0.119062,-0.26458 -0.264583,-0.26458 -0.145521,0 -0.264583,0.11906 -0.264583,0.26458 0,0.14553 0.119062,0.26459 0.264583,0.26459 0.145521,0 0.264583,-0.11906 0.264583,-0.26459 z m 2.233383,0.40529 c -0.657727,-0.49748 -0.188693,-0.5033 0.677034,-0.008 0.423977,0.24237 0.513377,0.38149 0.249007,0.3875 -0.226848,0.005 -0.643566,-0.16543 -0.926041,-0.37909 z m -6.974994,-0.29504 c 0.01269,-0.30823 0.07539,-0.37092 0.159852,-0.15986 0.07643,0.191 0.06703,0.4192 -0.02089,0.50712 -0.08792,0.0879 -0.150453,-0.0684 -0.138964,-0.34726 z m 7.657335,-0.50073 c -0.20869,-0.25145 -0.228762,-0.40327 -0.05332,-0.40327 0.319764,0 0.692573,0.50197 0.509085,0.68546 -0.0666,0.0666 -0.27169,-0.0604 -0.455766,-0.28219 z M 95.32514,106.4779 c -0.182809,-0.0737 -0.265078,-0.24289 -0.182822,-0.37598 0.232278,-0.37584 0.559297,-0.28527 0.559297,0.15489 0,0.21828 -0.0099,0.38747 -0.02204,0.37598 -0.01212,-0.0115 -0.171616,-0.0812 -0.354425,-0.15489 z m 0.564882,-0.81641 c -0.249578,-0.5457 -0.492334,-1.06857 -0.539456,-1.16192 -0.04712,-0.0934 0.330084,-0.21828 0.83824,-0.2776 l 0.923919,-0.10787 v 1.26979 c 0,1.58628 -0.565459,1.71466 -1.222703,0.2776 z M 8.4142364,104.94273 c -0.096585,-0.50525 -0.048873,-0.60838 0.1898105,-0.4103 0.1753537,0.14554 0.4230076,0.17634 0.5503418,0.0685 0.1273339,-0.10787 0.060773,0.042 -0.1479132,0.33303 -0.2086864,0.29104 -0.3982834,0.56394 -0.421327,0.60644 -0.023043,0.0425 -0.099954,-0.22643 -0.1709121,-0.59763 z m 78.9129566,-1.41432 c 0.0097,-0.43433 0.490701,-0.89595 0.760119,-0.72944 0.479147,0.29613 0.335579,0.8286 -0.235003,0.87158 -0.291042,0.0219 -0.527344,-0.042 -0.525116,-0.14214 z m -75.790165,-1.03048 c -0.143585,-0.37708 -0.113194,-0.40747 0.148112,-0.14811 0.180821,0.17948 0.262115,0.39297 0.180654,0.47443 -0.08146,0.0815 -0.229407,-0.0654 -0.328766,-0.32632 z"
         id="path59" />
    </g>
    <text
       xml:space="preserve"
       style="font-style:normal;font-weight:normal;font-size:10.5833px;line-height:1.25;font-family:sans-serif;fill:#000000;fill-opacity:1;stroke:none;stroke-width:0.264583"
       x="52.373657"
       y="121.23406"
       id="text3045"><tspan
         sodipodi:role="line"
         id="tspan3043"
         style="font-style:normal;font-variant:normal;font-weight:bold;font-stretch:normal;font-size:10.5833px;font-family:'Segoe Print';-inkscape-font-specification:'Segoe Print, Bold';font-variant-ligatures:normal;font-variant-caps:normal;font-variant-numeric:normal;font-variant-east-asian:normal;fill:#f4623a;fill-opacity:1;stroke-width:0.264583"
         x="52.373657"
         y="121.23406">Game fan's</tspan></text>
    <text
       xml:space="preserve"
       transform="matrix(0.26458333,0,0,0.26458333,2.6564755,96.334961)"
       id="text21640"
       style="fill:black;fill-opacity:1;line-height:1.25;stroke:none;font-family:sans-serif;font-style:normal;font-weight:normal;font-size:40px;white-space:pre;shape-inside:url(#rect21642)" />
  </g>
</svg>
